<?xml version="1.0" standalone="no"?>
<!DOCTYPE svg PUBLIC "-//W3C//DTD SVG 20010904//EN"
 "http://www.w3.org/TR/2001/REC-SVG-20010904/DTD/svg10.dtd">
<svg version="1.0" xmlns="http://www.w3.org/2000/svg"
 width="32.000000pt" height="32.000000pt" viewBox="0 0 32.000000 32.000000"
 preserveAspectRatio="xMidYMid meet">

<g transform="translate(0.000000,32.000000) scale(0.100000,-0.100000)"
fill="#000000" stroke="none">
<path d="M80 160 c0 -93 1 -100 20 -100 17 0 20 7 20 40 l0 40 40 0 40 0 0
-40 c0 -33 3 -40 20 -40 17 0 20 7 20 40 0 33 -3 40 -20 40 -13 0 -20 7 -20
20 0 13 7 20 20 20 17 0 20 7 20 40 l0 40 -80 0 -80 0 0 -100z m120 40 c0 -17
-7 -20 -40 -20 -33 0 -40 3 -40 20 0 17 7 20 40 20 33 0 40 -3 40 -20z"/>
</g>
</svg>
